<svg xmlns="http://www.w3.org/2000/svg" width="24" height="24" fill="none" viewBox="0 0 24 24"><g id="Group"><g id="Group_2"><path id="Path" stroke="#283946" stroke-linecap="round" stroke-linejoin="round" stroke-width="1.5" d="M21.9989 9L19.3789 10"/><path id="Path_2" stroke="#283946" stroke-linecap="round" stroke-linejoin="round" stroke-width="1.5" d="M4.63 10L2 9"/><path id="Path_3" stroke="#283946" stroke-linecap="round" stroke-linejoin="round" stroke-width="1.5" d="M18.25 14H15.75"/><path id="Path_4" stroke="#283946" stroke-linecap="round" stroke-linejoin="round" stroke-width="1.5" d="M8.25 14H5.75"/><path id="Path_5" stroke="#283946" stroke-linecap="round" stroke-linejoin="round" stroke-width="1.5" d="M19.3809 10L18.5419 5.988C18.2989 4.83 17.2779 4 16.0939 4H8.01391C6.85291 4 5.84391 4.8 5.57991 5.931L4.62891 10"/><path id="Path_6" fill-rule="evenodd" stroke="#283946" stroke-linecap="round" stroke-linejoin="round" stroke-width="1.5" d="M3.25 20H5.5C6.328 20 7 19.328 7 18.5V17.5H17V18.5C17 19.328 17.672 20 18.5 20H20.75C21.44 20 22 19.44 22 18.75V13C22 11.343 20.657 10 19 10H5C3.343 10 2 11.343 2 13V18.75C2 19.44 2.56 20 3.25 20Z" clip-rule="evenodd"/></g></g></svg>